<svg width="42" height="42" viewBox="0 0 42 42" fill="none" xmlns="http://www.w3.org/2000/svg">
<path d="M32.0914 18.3923C31.4937 18.9915 31.0361 19.7147 30.7509 20.5103C30.4658 21.306 30.3603 22.1544 30.4418 22.9954L30.4135 22.9671C30.4974 23.957 30.3633 24.9531 30.0209 25.8861C29.6786 26.819 29.136 27.6663 28.4313 28.3688C27.7263 29.0711 26.8761 29.6119 25.9398 29.9529C25.0037 30.2941 24.004 30.4277 23.0108 30.3441L23.0392 30.3724C21.851 30.2622 20.6577 30.5198 19.6217 31.1102C18.5859 31.7007 17.7579 32.595 17.2509 33.6716C16.7439 34.7481 16.5823 35.9541 16.7882 37.1256C16.9943 38.2969 17.5578 39.3764 18.402 40.2169C19.2462 41.0573 20.33 41.6179 21.5055 41.8221C22.6812 42.0264 23.8912 41.8642 24.9711 41.358C26.0509 40.8516 26.9476 40.0259 27.5391 38.9931C28.1307 37.9602 28.3882 36.7709 28.2766 35.5868L28.3065 35.6151C28.2226 34.6254 28.3565 33.6291 28.6989 32.6961C29.0413 31.7632 29.5839 30.916 30.2887 30.2135C30.9937 29.5111 31.8438 28.9704 32.78 28.6293C33.7163 28.2881 34.7158 28.1546 35.7092 28.2382L35.6792 28.2099C36.6497 28.2968 37.6267 28.1382 38.5195 27.7488C39.4121 27.3593 40.1918 26.7516 40.786 25.982C41.3803 25.2124 41.7701 24.3056 41.919 23.346C42.068 22.3863 41.9715 21.4046 41.6384 20.4919C41.3054 19.5793 40.7465 18.7652 40.0136 18.1251C39.2807 17.485 38.3976 17.0396 37.446 16.8303C36.4944 16.6209 35.5051 16.6542 34.5699 16.9272C33.6347 17.2004 32.7839 17.7042 32.0962 18.3923H32.0914Z" fill="#C21F22"/>
<path d="M20.4575 26.6666L20.4275 26.6383C21.2717 26.723 22.1243 26.6198 22.9237 26.3359C23.7229 26.0521 24.449 25.5949 25.0492 24.9973C25.6493 24.3996 26.1088 23.6764 26.3941 22.88C26.6796 22.0837 26.7838 21.2343 26.6995 20.3929L26.7294 20.4212C26.6455 19.4312 26.7796 18.4352 27.1218 17.5021C27.4642 16.5692 28.0068 15.722 28.7116 15.0195C29.4165 14.3172 30.2667 13.7764 31.2029 13.4353C32.1392 13.0941 33.1387 12.9606 34.1321 13.0442L34.1021 13.0159C35.2904 13.1272 36.4841 12.8703 37.5205 12.2806C38.5571 11.6908 39.3857 10.7968 39.8935 9.72046C40.4013 8.64415 40.5636 7.43792 40.3583 6.2663C40.153 5.09467 39.5899 4.01472 38.7459 3.17371C37.902 2.33271 36.8183 1.77159 35.6426 1.56694C34.4669 1.36228 33.2565 1.52401 32.1764 2.03009C31.0963 2.53615 30.1992 3.36193 29.6074 4.39479C29.0155 5.42763 28.7578 6.61726 28.8695 7.80141L28.8411 7.77155C28.9251 8.76147 28.7914 9.75775 28.4492 10.6908C28.107 11.6239 27.5643 12.4713 26.8595 13.1738C26.1546 13.8762 25.3042 14.417 24.3679 14.758C23.4315 15.099 22.4318 15.2323 21.4384 15.1485L21.4668 15.1784C20.6226 15.0937 19.7699 15.1969 18.9706 15.4808C18.1714 15.7644 17.4453 16.2218 16.8451 16.8194C16.2449 17.4171 15.7855 18.1403 15.5 18.9366C15.2147 19.733 15.1105 20.5824 15.1949 21.4238L15.1665 21.3955C15.2501 22.3853 15.1159 23.3814 14.7735 24.3143C14.4309 25.247 13.8884 26.0942 13.1837 26.7966C12.4788 27.4989 11.6287 28.0395 10.6926 28.3809C9.75657 28.7221 8.75705 28.8558 7.76381 28.7725L7.7922 28.8008C6.60392 28.6895 5.41014 28.9463 4.37369 29.5361C3.33725 30.1259 2.50859 31.0199 2.00076 32.0962C1.49292 33.1726 1.33061 34.3788 1.53599 35.5504C1.74137 36.722 2.30444 37.802 3.14837 38.6429C3.99231 39.484 5.07603 40.0451 6.25173 40.2497C7.42744 40.4543 8.63787 40.2926 9.71795 39.7866C10.798 39.2805 11.6951 38.4548 12.2869 37.422C12.8788 36.389 13.1365 35.1995 13.0248 34.0153L13.0548 34.0436C12.9709 33.0536 13.105 32.0576 13.4473 31.1245C13.7896 30.1916 14.3322 29.3444 15.037 28.6419C15.7419 27.9396 16.5921 27.3988 17.5283 27.0578C18.4646 26.7166 19.4641 26.583 20.4575 26.6666Z" fill="#C21F22"/>
<path d="M9.88795 23.5123C10.4857 22.9132 10.9433 22.19 11.2282 21.3943C11.5131 20.5986 11.6182 19.7499 11.536 18.9091L11.5659 18.9374C11.482 17.9473 11.616 16.9508 11.9586 16.0176C12.3011 15.0844 12.844 14.237 13.5492 13.5345C14.2545 12.832 15.105 12.2914 16.0416 11.9505C16.9782 11.6095 17.9782 11.4764 18.9718 11.5605L18.9418 11.5322C20.1296 11.6431 21.323 11.3861 22.3589 10.7964C23.3949 10.2067 24.223 9.31292 24.7307 8.23694C25.2382 7.16094 25.4003 5.95515 25.195 4.78397C24.9896 3.61278 24.4266 2.53324 23.5831 1.69254C22.7395 0.851841 21.6561 0.290915 20.4808 0.0862645C19.3056 -0.118402 18.0955 0.0431876 17.0159 0.548952C15.9361 1.05472 15.0392 1.88006 14.4475 2.91243C13.8556 3.94479 13.5978 5.13394 13.7091 6.31768L13.6808 6.28939C13.7647 7.27925 13.6306 8.27542 13.2882 9.20837C12.9458 10.1413 12.4034 10.9886 11.6985 11.691C10.9936 12.3934 10.1434 12.9341 9.20721 13.2752C8.27101 13.6164 7.27138 13.75 6.27808 13.6664L6.30647 13.6947C5.3359 13.6079 4.35906 13.7668 3.46648 14.1564C2.5739 14.546 1.79445 15.1539 1.20035 15.9236C0.606264 16.6932 0.216764 17.6 0.0679218 18.5596C-0.0809044 19.5194 0.015753 20.501 0.348936 21.4134C0.68212 22.3261 1.24107 23.14 1.97398 23.7799C2.70688 24.42 3.59003 24.8652 4.54159 25.0746C5.49313 25.2838 6.48231 25.2503 7.41745 24.9773C8.35258 24.7042 9.2034 24.2003 9.89109 23.5123H9.88795Z" fill="#C21F22"/>
</svg>
