<svg width="33" height="33" viewBox="0 0 33 33" fill="none" xmlns="http://www.w3.org/2000/svg">
<path d="M24.5749 14.9923C24.1172 15.4512 23.7668 16.005 23.5484 16.6142C23.3301 17.2236 23.2493 17.8733 23.3117 18.5173L23.29 18.4956C23.3542 19.2537 23.2516 20.0165 22.9894 20.731C22.7272 21.4454 22.3117 22.0942 21.772 22.6321C21.2322 23.17 20.5811 23.5841 19.8642 23.8452C19.1473 24.1065 18.3817 24.2088 17.6211 24.1448L17.6429 24.1664C16.733 24.0821 15.8192 24.2793 15.0259 24.7315C14.2327 25.1836 13.5986 25.8685 13.2104 26.6929C12.8221 27.5173 12.6983 28.4408 12.856 29.3379C13.0139 30.2349 13.4454 31.0615 14.0918 31.7052C14.7383 32.3488 15.5682 32.7781 16.4684 32.9344C17.3687 33.0908 18.2954 32.9666 19.1223 32.579C19.9492 32.1912 20.6359 31.5589 21.0889 30.768C21.5419 29.9771 21.7391 29.0663 21.6536 28.1596L21.6765 28.1812C21.6123 27.4233 21.7148 26.6604 21.977 25.9459C22.2392 25.2315 22.6547 24.5827 23.1944 24.0448C23.7343 23.5069 24.3853 23.0928 25.1022 22.8317C25.8192 22.5704 26.5846 22.4681 27.3453 22.5321L27.3224 22.5104C28.0656 22.577 28.8137 22.4556 29.4974 22.1573C30.181 21.8591 30.778 21.3937 31.2331 20.8044C31.6881 20.215 31.9867 19.5206 32.1007 18.7858C32.2148 18.0508 32.1409 17.2991 31.8858 16.6002C31.6308 15.9013 31.2028 15.2779 30.6416 14.7877C30.0803 14.2975 29.4041 13.9565 28.6753 13.7962C27.9466 13.6359 27.1891 13.6614 26.4729 13.8704C25.7568 14.0796 25.1052 14.4654 24.5786 14.9923H24.5749Z" fill="#C21F22"/>
<path d="M15.6659 21.3286L15.6429 21.3069C16.2894 21.3718 16.9423 21.2927 17.5544 21.0754C18.1665 20.858 18.7225 20.5079 19.1822 20.0503C19.6417 19.5926 19.9936 19.0387 20.2121 18.4289C20.4306 17.8191 20.5105 17.1686 20.4459 16.5243L20.4688 16.546C20.4046 15.7879 20.5072 15.0251 20.7693 14.3106C21.0315 13.5962 21.447 12.9474 21.9867 12.4095C22.5266 11.8716 23.1776 11.4575 23.8945 11.1964C24.6115 10.935 25.3769 10.8328 26.1376 10.8968L26.1147 10.8752C27.0247 10.9604 27.9388 10.7637 28.7324 10.3121C29.5262 9.86043 30.1607 9.17581 30.5496 8.35158C30.9385 7.52737 31.0628 6.60366 30.9055 5.70645C30.7483 4.80925 30.3171 3.98224 29.6708 3.33821C29.0246 2.69419 28.1947 2.2645 27.2943 2.10778C26.394 1.95105 25.4671 2.0749 24.64 2.46245C23.8129 2.84998 23.1259 3.48235 22.6727 4.27329C22.2195 5.06422 22.0221 5.97521 22.1076 6.88201L22.0859 6.85915C22.1503 7.61721 22.0478 8.38014 21.7858 9.09467C21.5237 9.8092 21.1081 10.4581 20.5684 10.9961C20.0286 11.5339 19.3774 11.9481 18.6604 12.2092C17.9433 12.4704 17.1778 12.5724 16.4171 12.5083L16.4388 12.5311C15.7923 12.4663 15.1393 12.5454 14.5273 12.7627C13.9152 12.9799 13.3592 13.3301 12.8996 13.7878C12.44 14.2455 12.0882 14.7993 11.8696 15.4092C11.6511 16.019 11.5713 16.6694 11.6359 17.3138L11.6141 17.2921C11.6782 18.0501 11.5754 18.8128 11.3132 19.5272C11.0509 20.2415 10.6354 20.8903 10.0957 21.4281C9.55598 21.966 8.90499 22.38 8.18817 22.6413C7.47134 22.9026 6.70593 23.005 5.94532 22.9413L5.96706 22.9629C5.0571 22.8777 4.14293 23.0744 3.34924 23.526C2.55555 23.9777 1.92098 24.6622 1.5321 25.4865C1.1432 26.3108 1.01891 27.2344 1.17619 28.1316C1.33346 29.0288 1.76465 29.8558 2.41091 30.4998C3.05719 31.1439 3.88707 31.5736 4.78741 31.7303C5.68774 31.887 6.61467 31.7631 7.44176 31.3756C8.26885 30.9881 8.95586 30.3558 9.40905 29.5648C9.86229 28.7738 10.0596 27.8629 9.97412 26.9561L9.99707 26.9777C9.93282 26.2197 10.0355 25.4569 10.2977 24.7424C10.5597 24.028 10.9753 23.3792 11.515 22.8412C12.0548 22.3034 12.7059 21.8893 13.4228 21.6281C14.1398 21.3669 14.9052 21.2646 15.6659 21.3286Z" fill="#C21F22"/>
<path d="M7.57199 18.9131C8.02972 18.4543 8.38017 17.9005 8.59832 17.2911C8.81648 16.6818 8.89696 16.0319 8.83401 15.3881L8.85694 15.4097C8.7927 14.6515 8.8953 13.8884 9.15762 13.1738C9.41994 12.4592 9.83566 11.8102 10.3757 11.2723C10.9158 10.7344 11.5671 10.3204 12.2843 10.0593C13.0016 9.79818 13.7674 9.69624 14.5282 9.7606L14.5052 9.73894C15.4149 9.82387 16.3287 9.62711 17.122 9.17552C17.9154 8.72394 18.5495 8.03948 18.9383 7.21552C19.3269 6.39154 19.451 5.46817 19.2938 4.5713C19.1366 3.67443 18.7054 2.84774 18.0594 2.20395C17.4134 1.56016 16.5838 1.13061 15.6838 0.973897C14.7839 0.817167 13.8572 0.940909 13.0304 1.32821C12.2035 1.71552 11.5167 2.34755 11.0636 3.13812C10.6104 3.92868 10.4129 4.83931 10.4982 5.74579L10.4764 5.72413C10.5407 6.48214 10.438 7.24499 10.1759 7.95943C9.91367 8.67386 9.49826 9.32267 8.95847 9.86058C8.4187 10.3985 7.76762 10.8125 7.0507 11.0737C6.33378 11.335 5.56828 11.4373 4.80763 11.3733L4.82936 11.3949C4.08613 11.3285 3.33808 11.4502 2.65456 11.7485C1.97104 12.0469 1.37415 12.5124 0.919207 13.1018C0.464265 13.6912 0.165993 14.3856 0.0520132 15.1204C-0.061955 15.8554 0.0120633 16.6071 0.267209 17.3058C0.522354 18.0047 0.95039 18.628 1.51163 19.118C2.07287 19.6082 2.74917 19.9491 3.47786 20.1095C4.20653 20.2696 4.96402 20.244 5.68014 20.035C6.39624 19.8258 7.04778 19.44 7.5744 18.9131H7.57199Z" fill="#C21F22"/>
</svg>
