<svg width="135" height="33" viewBox="0 0 135 33" fill="none" xmlns="http://www.w3.org/2000/svg">
<path d="M44.32 24V11.352H47.464L47.632 12.816C47.984 12.384 48.384 12.048 48.832 11.808C49.296 11.552 49.76 11.376 50.224 11.28C50.704 11.184 51.136 11.136 51.52 11.136C52.736 11.136 53.68 11.4 54.352 11.928C55.04 12.456 55.528 13.168 55.816 14.064C56.12 14.944 56.272 15.928 56.272 17.016V24H52.912V17.448C52.912 17.064 52.88 16.68 52.816 16.296C52.752 15.912 52.632 15.56 52.456 15.24C52.296 14.92 52.064 14.664 51.76 14.472C51.456 14.28 51.056 14.184 50.56 14.184C49.92 14.184 49.384 14.344 48.952 14.664C48.52 14.984 48.2 15.416 47.992 15.96C47.784 16.504 47.68 17.104 47.68 17.76V24H44.32ZM58.8513 24V11.352H62.2113V24H58.8513ZM60.5312 10.08C59.9073 10.08 59.4033 9.896 59.0193 9.528C58.6353 9.144 58.4433 8.656 58.4433 8.064C58.4433 7.44 58.6433 6.936 59.0433 6.552C59.4433 6.168 59.9473 5.976 60.5553 5.976C61.1153 5.976 61.5953 6.168 61.9953 6.552C62.4113 6.92 62.6193 7.416 62.6193 8.04C62.6193 8.648 62.4193 9.144 62.0193 9.528C61.6353 9.896 61.1393 10.08 60.5312 10.08ZM70.5387 24.168C69.2427 24.168 68.1307 23.904 67.2027 23.376C66.2907 22.848 65.5947 22.104 65.1147 21.144C64.6347 20.168 64.3947 19.024 64.3947 17.712C64.3947 16.384 64.6427 15.232 65.1387 14.256C65.6347 13.264 66.3467 12.496 67.2747 11.952C68.2187 11.408 69.3547 11.136 70.6827 11.136C71.7067 11.136 72.6187 11.32 73.4187 11.688C74.2187 12.056 74.8587 12.584 75.3387 13.272C75.8347 13.96 76.1227 14.808 76.2027 15.816H72.9147C72.7707 15.256 72.4907 14.848 72.0747 14.592C71.6747 14.336 71.1947 14.208 70.6347 14.208C69.9147 14.208 69.3387 14.384 68.9067 14.736C68.4907 15.088 68.1867 15.536 67.9947 16.08C67.8187 16.624 67.7307 17.168 67.7307 17.712C67.7307 18.304 67.8267 18.864 68.0187 19.392C68.2107 19.904 68.5147 20.328 68.9307 20.664C69.3627 20.984 69.9227 21.144 70.6107 21.144C71.1867 21.144 71.6907 21.016 72.1227 20.76C72.5547 20.488 72.8347 20.072 72.9627 19.512H76.3227C76.2427 20.552 75.9307 21.416 75.3867 22.104C74.8427 22.792 74.1467 23.312 73.2987 23.664C72.4667 24 71.5467 24.168 70.5387 24.168Z" fill="#394149"/>
<path d="M83.2953 24.168C82.7033 24.168 82.0953 24.104 81.4713 23.976C80.8473 23.848 80.2713 23.632 79.7433 23.328C79.2153 23.008 78.7673 22.584 78.3993 22.056C78.0313 21.512 77.7913 20.84 77.6793 20.04H81.0873C81.1833 20.328 81.3513 20.576 81.5913 20.784C81.8473 20.992 82.1353 21.144 82.4553 21.24C82.7913 21.336 83.1273 21.384 83.4633 21.384C83.6873 21.384 83.9113 21.368 84.1353 21.336C84.3593 21.304 84.5673 21.24 84.7593 21.144C84.9513 21.048 85.1033 20.928 85.2153 20.784C85.3273 20.624 85.3833 20.424 85.3833 20.184C85.3833 19.928 85.3033 19.728 85.1433 19.584C84.9833 19.44 84.7593 19.328 84.4713 19.248C84.1833 19.152 83.8553 19.064 83.4873 18.984C82.8313 18.84 82.1273 18.68 81.3753 18.504C80.6233 18.328 79.9753 18.072 79.4313 17.736C79.2073 17.576 79.0073 17.4 78.8313 17.208C78.6553 17.016 78.5113 16.8 78.3993 16.56C78.2873 16.32 78.1993 16.072 78.1353 15.816C78.0713 15.544 78.0393 15.256 78.0393 14.952C78.0393 14.264 78.1833 13.68 78.4713 13.2C78.7753 12.704 79.1753 12.304 79.6713 12C80.1673 11.696 80.7193 11.48 81.3273 11.352C81.9353 11.208 82.5593 11.136 83.1992 11.136C84.0633 11.136 84.8633 11.28 85.5993 11.568C86.3353 11.84 86.9433 12.272 87.4233 12.864C87.9033 13.44 88.1993 14.192 88.3113 15.12H85.0953C85.0313 14.768 84.8153 14.488 84.4473 14.28C84.0793 14.056 83.6233 13.944 83.0793 13.944C82.8873 13.944 82.6793 13.96 82.4553 13.992C82.2473 14.024 82.0553 14.08 81.8793 14.16C81.7033 14.24 81.5593 14.352 81.4473 14.496C81.3353 14.624 81.2793 14.8 81.2793 15.024C81.2793 15.2 81.3273 15.36 81.4233 15.504C81.5353 15.648 81.6873 15.768 81.8793 15.864C82.0873 15.96 82.3353 16.048 82.6233 16.128C83.1673 16.256 83.7113 16.376 84.2553 16.488C84.8153 16.584 85.3113 16.688 85.7433 16.8C86.2713 16.912 86.7513 17.096 87.1833 17.352C87.6313 17.608 87.9913 17.96 88.2633 18.408C88.5513 18.84 88.6953 19.408 88.6953 20.112C88.6953 20.912 88.5353 21.576 88.2153 22.104C87.8953 22.616 87.4633 23.024 86.9193 23.328C86.3913 23.632 85.8073 23.848 85.1673 23.976C84.5433 24.104 83.9193 24.168 83.2953 24.168ZM96.4399 24.168C95.1119 24.168 93.9839 23.904 93.0559 23.376C92.1279 22.848 91.4159 22.104 90.9199 21.144C90.4239 20.168 90.1759 19.032 90.1759 17.736C90.1759 16.424 90.4319 15.28 90.9439 14.304C91.4559 13.312 92.1759 12.536 93.1039 11.976C94.0479 11.416 95.1599 11.136 96.4399 11.136C97.3999 11.136 98.2399 11.296 98.9599 11.616C99.6959 11.936 100.312 12.384 100.808 12.96C101.32 13.536 101.696 14.208 101.936 14.976C102.192 15.728 102.312 16.544 102.296 17.424C102.296 17.648 102.288 17.864 102.272 18.072C102.256 18.28 102.224 18.488 102.176 18.696H93.5119C93.5599 19.176 93.6959 19.616 93.9199 20.016C94.1439 20.416 94.4559 20.736 94.8559 20.976C95.2719 21.2 95.7839 21.312 96.3919 21.312C96.7919 21.312 97.1599 21.272 97.4959 21.192C97.8319 21.096 98.1199 20.952 98.3599 20.76C98.5999 20.568 98.7679 20.344 98.8639 20.088H102.176C101.968 21.032 101.576 21.808 101 22.416C100.44 23.024 99.7599 23.472 98.9599 23.76C98.1599 24.032 97.3199 24.168 96.4399 24.168ZM93.5839 16.344H99.0799C99.0639 15.912 98.9519 15.512 98.7439 15.144C98.5519 14.76 98.2559 14.456 97.8559 14.232C97.4719 13.992 96.9759 13.872 96.3679 13.872C95.7599 13.872 95.2479 13.992 94.8319 14.232C94.4319 14.472 94.1279 14.784 93.9199 15.168C93.7279 15.536 93.6159 15.928 93.5839 16.344ZM110.359 24.168C109.063 24.168 107.951 23.904 107.023 23.376C106.111 22.848 105.415 22.104 104.935 21.144C104.455 20.168 104.215 19.024 104.215 17.712C104.215 16.384 104.463 15.232 104.959 14.256C105.455 13.264 106.167 12.496 107.095 11.952C108.039 11.408 109.175 11.136 110.503 11.136C111.527 11.136 112.439 11.32 113.239 11.688C114.039 12.056 114.679 12.584 115.159 13.272C115.655 13.96 115.943 14.808 116.023 15.816H112.735C112.591 15.256 112.311 14.848 111.895 14.592C111.495 14.336 111.015 14.208 110.455 14.208C109.735 14.208 109.159 14.384 108.727 14.736C108.311 15.088 108.007 15.536 107.815 16.08C107.639 16.624 107.551 17.168 107.551 17.712C107.551 18.304 107.647 18.864 107.839 19.392C108.031 19.904 108.335 20.328 108.751 20.664C109.183 20.984 109.743 21.144 110.431 21.144C111.007 21.144 111.511 21.016 111.943 20.76C112.375 20.488 112.655 20.072 112.783 19.512H116.143C116.063 20.552 115.751 21.416 115.207 22.104C114.663 22.792 113.967 23.312 113.119 23.664C112.287 24 111.367 24.168 110.359 24.168Z" fill="#C21F22"/>
<path d="M25.492 14.9923C25.0343 15.4512 24.6838 16.005 24.4655 16.6142C24.2471 17.2236 24.1663 17.8733 24.2288 18.5173L24.207 18.4956C24.2713 19.2537 24.1686 20.0165 23.9064 20.731C23.6442 21.4454 23.2288 22.0942 22.6891 22.6321C22.1493 23.17 21.4982 23.5841 20.7812 23.8452C20.0643 24.1065 19.2988 24.2088 18.5382 24.1448L18.5599 24.1664C17.6501 24.0821 16.7362 24.2793 15.9429 24.7315C15.1497 25.1836 14.5157 25.8685 14.1274 26.6929C13.7391 27.5173 13.6154 28.4408 13.7731 29.3379C13.9309 30.2349 14.3624 31.0615 15.0089 31.7052C15.6554 32.3488 16.4853 32.7781 17.3855 32.9344C18.2858 33.0908 19.2124 32.9666 20.0393 32.579C20.8662 32.1912 21.5529 31.5589 22.0059 30.768C22.4589 29.9771 22.6561 29.0663 22.5706 28.1596L22.5936 28.1812C22.5293 27.4233 22.6318 26.6604 22.894 25.9459C23.1562 25.2315 23.5718 24.5827 24.1115 24.0448C24.6513 23.5069 25.3024 23.0928 26.0193 22.8317C26.7362 22.5704 27.5017 22.4681 28.2624 22.5321L28.2394 22.5104C28.9826 22.577 29.7308 22.4556 30.4145 22.1573C31.098 21.8591 31.6951 21.3937 32.1501 20.8044C32.6052 20.215 32.9037 19.5206 33.0177 18.7858C33.1318 18.0508 33.0579 17.2991 32.8029 16.6002C32.5478 15.9013 32.1198 15.2779 31.5586 14.7877C30.9974 14.2975 30.3211 13.9565 29.5924 13.7962C28.8637 13.6359 28.1061 13.6614 27.39 13.8704C26.6738 14.0796 26.0223 14.4654 25.4956 14.9923H25.492Z" fill="#C21F22"/>
<path d="M16.5829 21.3286L16.56 21.3069C17.2065 21.3718 17.8593 21.2927 18.4715 21.0754C19.0836 20.858 19.6396 20.5079 20.0992 20.0503C20.5587 19.5926 20.9106 19.0387 21.1291 18.4289C21.3477 17.8191 21.4275 17.1686 21.3629 16.5243L21.3859 16.546C21.3216 15.7879 21.4243 15.0251 21.6863 14.3106C21.9485 13.5962 22.3641 12.9474 22.9038 12.4095C23.4436 11.8716 24.0947 11.4575 24.8115 11.1964C25.5285 10.935 26.294 10.8328 27.0547 10.8968L27.0317 10.8752C27.9417 10.9604 28.8558 10.7637 29.6495 10.3121C30.4433 9.86043 31.0778 9.17581 31.4667 8.35158C31.8555 7.52737 31.9798 6.60366 31.8226 5.70645C31.6653 4.80925 31.2342 3.98224 30.5878 3.33821C29.9416 2.69419 29.1117 2.2645 28.2114 2.10778C27.3111 1.95105 26.3842 2.0749 25.557 2.46245C24.7299 2.84998 24.043 3.48235 23.5897 4.27329C23.1365 5.06422 22.9392 5.97521 23.0247 6.88201L23.0029 6.85915C23.0673 7.61721 22.9649 8.38014 22.7028 9.09467C22.4408 9.8092 22.0252 10.4581 21.4855 10.9961C20.9457 11.5339 20.2945 11.9481 19.5775 12.2092C18.8604 12.4704 18.0948 12.5724 17.3341 12.5083L17.3559 12.5311C16.7094 12.4663 16.0564 12.5454 15.4443 12.7627C14.8323 12.9799 14.2763 13.3301 13.8166 13.7878C13.357 14.2455 13.0052 14.7993 12.7866 15.4092C12.5682 16.019 12.4883 16.6694 12.5529 17.3138L12.5312 17.2921C12.5952 18.0501 12.4924 18.8128 12.2302 19.5272C11.9679 20.2415 11.5525 20.8903 11.0128 21.4281C10.473 21.966 9.82205 22.38 9.10522 22.6413C8.38839 22.9026 7.62298 23.005 6.86238 22.9413L6.88412 22.9629C5.97416 22.8777 5.05999 23.0744 4.26629 23.526C3.47261 23.9777 2.83803 24.6622 2.44915 25.4865C2.06026 26.3108 1.93596 27.2344 2.09324 28.1316C2.25051 29.0288 2.6817 29.8558 3.32796 30.4998C3.97424 31.1439 4.80413 31.5736 5.70446 31.7303C6.60479 31.887 7.53172 31.7631 8.35882 31.3756C9.18591 30.9881 9.87291 30.3558 10.3261 29.5648C10.7793 28.7738 10.9767 27.8629 10.8912 26.9561L10.9141 26.9777C10.8499 26.2197 10.9525 25.4569 11.2147 24.7424C11.4768 24.028 11.8923 23.3792 12.432 22.8412C12.9719 22.3034 13.6229 21.8893 14.3398 21.6281C15.0568 21.3669 15.8222 21.2646 16.5829 21.3286Z" fill="#C21F22"/>
<path d="M8.48905 18.9131C8.94678 18.4543 9.29722 17.9005 9.51538 17.2911C9.73353 16.6818 9.81401 16.0319 9.75106 15.3881L9.774 15.4097C9.70975 14.6515 9.81235 13.8884 10.0747 13.1738C10.337 12.4592 10.7527 11.8102 11.2928 11.2723C11.8329 10.7344 12.4842 10.3204 13.2014 10.0593C13.9186 9.79818 14.6844 9.69624 15.4452 9.7606L15.4223 9.73894C16.3319 9.82387 17.2458 9.62711 18.0391 9.17552C18.8324 8.72394 19.4666 8.03948 19.8553 7.21552C20.2439 6.39154 20.3681 5.46817 20.2108 4.5713C20.0536 3.67443 19.6225 2.84774 18.9765 2.20395C18.3305 1.56016 17.5008 1.13061 16.6009 0.973897C15.7009 0.817167 14.7743 0.940909 13.9475 1.32821C13.1206 1.71552 12.4338 2.34755 11.9807 3.13812C11.5274 3.92868 11.33 4.83931 11.4152 5.74579L11.3935 5.72413C11.4577 6.48214 11.3551 7.24499 11.0929 7.95943C10.8307 8.67386 10.4153 9.32267 9.87553 9.86058C9.33576 10.3985 8.68468 10.8125 7.96775 11.0737C7.25083 11.335 6.48533 11.4373 5.72468 11.3733L5.74642 11.3949C5.00318 11.3285 4.25513 11.4502 3.57162 11.7485C2.8881 12.0469 2.2912 12.5124 1.83626 13.1018C1.38132 13.6912 1.08305 14.3856 0.969066 15.1204C0.855098 15.8554 0.929117 16.6071 1.18426 17.3058C1.43941 18.0047 1.86744 18.628 2.42869 19.118C2.98993 19.6082 3.66622 19.9491 4.39491 20.1095C5.12358 20.2696 5.88107 20.244 6.59719 20.035C7.31329 19.8258 7.96483 19.44 8.49145 18.9131H8.48905Z" fill="#C21F22"/>
<circle cx="131.446" cy="20.1207" r="3.44577" fill="#394149"/>
</svg>
