<svg width="1278" height="728" viewBox="0 0 1278 728" fill="none" xmlns="http://www.w3.org/2000/svg">
<path d="M774.134 0C791.807 0 806.134 14.3269 806.134 32V64.4023C806.134 73.2389 813.297 80.4023 822.134 80.4023H1246C1263.67 80.4024 1278 94.7292 1278 112.402V633C1278 641.837 1270.84 649 1262 649H1057.88C1049.04 649 1041.88 656.163 1041.88 665V712C1041.88 720.837 1034.71 728 1025.88 728H32C14.3269 728 0 713.673 0 696V112.402C0 94.7292 14.3269 80.4023 32 80.4023H142.134C150.97 80.4023 158.134 73.2389 158.134 64.4023V32C158.134 14.3269 172.461 1.28852e-07 190.134 0H774.134Z" fill="white"/>
</svg>
