<svg width="155" height="42" viewBox="0 0 155 42" fill="none" xmlns="http://www.w3.org/2000/svg">
<path d="M50.9391 29.135V16.487H54.0831L54.2511 17.951C54.6031 17.519 55.0031 17.183 55.4511 16.943C55.9151 16.687 56.3791 16.511 56.8431 16.415C57.3231 16.319 57.7551 16.271 58.1391 16.271C59.3551 16.271 60.2991 16.535 60.9711 17.063C61.6591 17.591 62.1471 18.303 62.4351 19.199C62.7391 20.079 62.8911 21.063 62.8911 22.151V29.135H59.5311V22.583C59.5311 22.199 59.4991 21.815 59.4351 21.431C59.3711 21.047 59.2511 20.695 59.0751 20.375C58.9151 20.055 58.6831 19.799 58.3791 19.607C58.0751 19.415 57.6751 19.319 57.1791 19.319C56.5391 19.319 56.0031 19.479 55.5711 19.799C55.1391 20.119 54.8191 20.551 54.6111 21.095C54.4031 21.639 54.2991 22.239 54.2991 22.895V29.135H50.9391ZM65.4704 29.135V16.487H68.8304V29.135H65.4704ZM67.1504 15.215C66.5264 15.215 66.0224 15.031 65.6384 14.663C65.2544 14.279 65.0624 13.791 65.0624 13.199C65.0624 12.575 65.2624 12.071 65.6624 11.687C66.0624 11.303 66.5664 11.111 67.1744 11.111C67.7344 11.111 68.2144 11.303 68.6144 11.687C69.0304 12.055 69.2384 12.551 69.2384 13.175C69.2384 13.783 69.0384 14.279 68.6384 14.663C68.2544 15.031 67.7584 15.215 67.1504 15.215ZM77.1578 29.303C75.8618 29.303 74.7498 29.039 73.8218 28.511C72.9098 27.983 72.2138 27.239 71.7338 26.279C71.2538 25.303 71.0138 24.159 71.0138 22.847C71.0138 21.519 71.2618 20.367 71.7578 19.391C72.2538 18.399 72.9658 17.631 73.8938 17.087C74.8378 16.543 75.9738 16.271 77.3018 16.271C78.3258 16.271 79.2378 16.455 80.0378 16.823C80.8378 17.191 81.4778 17.719 81.9578 18.407C82.4538 19.095 82.7418 19.943 82.8218 20.951H79.5338C79.3898 20.391 79.1098 19.983 78.6938 19.727C78.2938 19.471 77.8138 19.343 77.2538 19.343C76.5338 19.343 75.9578 19.519 75.5258 19.871C75.1098 20.223 74.8058 20.671 74.6138 21.215C74.4378 21.759 74.3498 22.303 74.3498 22.847C74.3498 23.439 74.4458 23.999 74.6378 24.527C74.8298 25.039 75.1338 25.463 75.5498 25.799C75.9818 26.119 76.5418 26.279 77.2298 26.279C77.8058 26.279 78.3098 26.151 78.7418 25.895C79.1738 25.623 79.4538 25.207 79.5818 24.647H82.9418C82.8618 25.687 82.5498 26.551 82.0058 27.239C81.4618 27.927 80.7658 28.447 79.9178 28.799C79.0858 29.135 78.1658 29.303 77.1578 29.303Z" fill="#394149"/>
<path d="M89.9144 29.303C89.3224 29.303 88.7144 29.239 88.0904 29.111C87.4664 28.983 86.8904 28.767 86.3624 28.463C85.8344 28.143 85.3864 27.719 85.0184 27.191C84.6504 26.647 84.4104 25.975 84.2984 25.175H87.7064C87.8024 25.463 87.9704 25.711 88.2104 25.919C88.4664 26.127 88.7544 26.279 89.0744 26.375C89.4104 26.471 89.7464 26.519 90.0824 26.519C90.3064 26.519 90.5304 26.503 90.7544 26.471C90.9784 26.439 91.1864 26.375 91.3784 26.279C91.5704 26.183 91.7224 26.063 91.8344 25.919C91.9464 25.759 92.0024 25.559 92.0024 25.319C92.0024 25.063 91.9224 24.863 91.7624 24.719C91.6024 24.575 91.3784 24.463 91.0904 24.383C90.8024 24.287 90.4744 24.199 90.1064 24.119C89.4504 23.975 88.7464 23.815 87.9944 23.639C87.2424 23.463 86.5944 23.207 86.0504 22.871C85.8264 22.711 85.6264 22.535 85.4504 22.343C85.2744 22.151 85.1304 21.935 85.0184 21.695C84.9064 21.455 84.8184 21.207 84.7544 20.951C84.6904 20.679 84.6584 20.391 84.6584 20.087C84.6584 19.399 84.8024 18.815 85.0904 18.335C85.3944 17.839 85.7944 17.439 86.2904 17.135C86.7864 16.831 87.3384 16.615 87.9464 16.487C88.5544 16.343 89.1784 16.271 89.8184 16.271C90.6824 16.271 91.4824 16.415 92.2184 16.703C92.9544 16.975 93.5624 17.407 94.0424 17.999C94.5224 18.575 94.8184 19.327 94.9304 20.255H91.7144C91.6504 19.903 91.4344 19.623 91.0664 19.415C90.6984 19.191 90.2424 19.079 89.6984 19.079C89.5064 19.079 89.2984 19.095 89.0744 19.127C88.8664 19.159 88.6744 19.215 88.4984 19.295C88.3224 19.375 88.1784 19.487 88.0664 19.631C87.9544 19.759 87.8984 19.935 87.8984 20.159C87.8984 20.335 87.9464 20.495 88.0424 20.639C88.1544 20.783 88.3064 20.903 88.4984 20.999C88.7064 21.095 88.9544 21.183 89.2424 21.263C89.7864 21.391 90.3304 21.511 90.8744 21.623C91.4344 21.719 91.9304 21.823 92.3624 21.935C92.8904 22.047 93.3704 22.231 93.8024 22.487C94.2504 22.743 94.6104 23.095 94.8824 23.543C95.1704 23.975 95.3144 24.543 95.3144 25.247C95.3144 26.047 95.1544 26.711 94.8344 27.239C94.5144 27.751 94.0824 28.159 93.5384 28.463C93.0104 28.767 92.4264 28.983 91.7864 29.111C91.1624 29.239 90.5384 29.303 89.9144 29.303ZM103.059 29.303C101.731 29.303 100.603 29.039 99.6751 28.511C98.7471 27.983 98.0351 27.239 97.5391 26.279C97.0431 25.303 96.7951 24.167 96.7951 22.871C96.7951 21.559 97.0511 20.415 97.5631 19.439C98.0751 18.447 98.7951 17.671 99.7231 17.111C100.667 16.551 101.779 16.271 103.059 16.271C104.019 16.271 104.859 16.431 105.579 16.751C106.315 17.071 106.931 17.519 107.427 18.095C107.939 18.671 108.315 19.343 108.555 20.111C108.811 20.863 108.931 21.679 108.915 22.559C108.915 22.783 108.907 22.999 108.891 23.207C108.875 23.415 108.843 23.623 108.795 23.831H100.131C100.179 24.311 100.315 24.751 100.539 25.151C100.763 25.551 101.075 25.871 101.475 26.111C101.891 26.335 102.403 26.447 103.011 26.447C103.411 26.447 103.779 26.407 104.115 26.327C104.451 26.231 104.739 26.087 104.979 25.895C105.219 25.703 105.387 25.479 105.483 25.223H108.795C108.587 26.167 108.195 26.943 107.619 27.551C107.059 28.159 106.379 28.607 105.579 28.895C104.779 29.167 103.939 29.303 103.059 29.303ZM100.203 21.479H105.699C105.683 21.047 105.571 20.647 105.363 20.279C105.171 19.895 104.875 19.591 104.475 19.367C104.091 19.127 103.595 19.007 102.987 19.007C102.379 19.007 101.867 19.127 101.451 19.367C101.051 19.607 100.747 19.919 100.539 20.303C100.347 20.671 100.235 21.063 100.203 21.479ZM116.978 29.303C115.682 29.303 114.57 29.039 113.642 28.511C112.73 27.983 112.034 27.239 111.554 26.279C111.074 25.303 110.834 24.159 110.834 22.847C110.834 21.519 111.082 20.367 111.578 19.391C112.074 18.399 112.786 17.631 113.714 17.087C114.658 16.543 115.794 16.271 117.122 16.271C118.146 16.271 119.058 16.455 119.858 16.823C120.658 17.191 121.298 17.719 121.778 18.407C122.274 19.095 122.562 19.943 122.642 20.951H119.354C119.21 20.391 118.93 19.983 118.514 19.727C118.114 19.471 117.634 19.343 117.074 19.343C116.354 19.343 115.778 19.519 115.346 19.871C114.93 20.223 114.626 20.671 114.434 21.215C114.258 21.759 114.17 22.303 114.17 22.847C114.17 23.439 114.266 23.999 114.458 24.527C114.65 25.039 114.954 25.463 115.37 25.799C115.802 26.119 116.362 26.279 117.05 26.279C117.626 26.279 118.13 26.151 118.562 25.895C118.994 25.623 119.274 25.207 119.402 24.647H122.762C122.682 25.687 122.37 26.551 121.826 27.239C121.282 27.927 120.586 28.447 119.738 28.799C118.906 29.135 117.986 29.303 116.978 29.303Z" fill="#C21F22"/>
<path d="M32.0914 18.3923C31.4937 18.9915 31.0361 19.7147 30.7509 20.5103C30.4658 21.306 30.3603 22.1544 30.4418 22.9954L30.4135 22.9671C30.4974 23.957 30.3633 24.9531 30.0209 25.8861C29.6786 26.819 29.136 27.6663 28.4313 28.3688C27.7263 29.0711 26.8761 29.6119 25.9398 29.9529C25.0037 30.2941 24.004 30.4277 23.0108 30.3441L23.0392 30.3724C21.851 30.2622 20.6577 30.5198 19.6217 31.1102C18.5859 31.7007 17.7579 32.595 17.2509 33.6716C16.7439 34.7481 16.5823 35.9541 16.7882 37.1256C16.9943 38.2969 17.5578 39.3764 18.402 40.2169C19.2462 41.0573 20.33 41.6179 21.5055 41.8221C22.6812 42.0264 23.8912 41.8642 24.9711 41.358C26.0509 40.8516 26.9476 40.0259 27.5391 38.9931C28.1307 37.9602 28.3882 36.7709 28.2766 35.5868L28.3065 35.6151C28.2226 34.6254 28.3565 33.6291 28.6989 32.6961C29.0413 31.7632 29.5839 30.916 30.2887 30.2135C30.9937 29.5111 31.8438 28.9704 32.78 28.6293C33.7163 28.2881 34.7158 28.1546 35.7092 28.2382L35.6792 28.2099C36.6497 28.2968 37.6267 28.1382 38.5195 27.7488C39.4121 27.3593 40.1918 26.7516 40.786 25.982C41.3803 25.2124 41.7701 24.3056 41.919 23.346C42.068 22.3863 41.9715 21.4046 41.6384 20.4919C41.3054 19.5793 40.7465 18.7652 40.0136 18.1251C39.2807 17.485 38.3976 17.0396 37.446 16.8303C36.4944 16.6209 35.5051 16.6542 34.5699 16.9272C33.6347 17.2004 32.7839 17.7042 32.0962 18.3923H32.0914Z" fill="#C21F22"/>
<path d="M20.4575 26.6666L20.4275 26.6383C21.2717 26.723 22.1243 26.6198 22.9237 26.3359C23.7229 26.0521 24.449 25.5949 25.0492 24.9973C25.6493 24.3996 26.1088 23.6764 26.3941 22.88C26.6796 22.0837 26.7838 21.2343 26.6995 20.3929L26.7294 20.4212C26.6455 19.4312 26.7796 18.4352 27.1218 17.5021C27.4642 16.5692 28.0068 15.722 28.7116 15.0195C29.4165 14.3172 30.2667 13.7764 31.2029 13.4353C32.1392 13.0941 33.1387 12.9606 34.1321 13.0442L34.1021 13.0159C35.2904 13.1272 36.4841 12.8703 37.5205 12.2806C38.5571 11.6908 39.3857 10.7968 39.8935 9.72046C40.4013 8.64415 40.5636 7.43792 40.3583 6.2663C40.153 5.09467 39.5899 4.01472 38.7459 3.17371C37.902 2.33271 36.8183 1.77159 35.6426 1.56694C34.4669 1.36228 33.2565 1.52401 32.1764 2.03009C31.0963 2.53615 30.1992 3.36193 29.6074 4.39479C29.0155 5.42763 28.7578 6.61726 28.8695 7.80141L28.8411 7.77155C28.9251 8.76147 28.7914 9.75775 28.4492 10.6908C28.107 11.6239 27.5643 12.4713 26.8595 13.1738C26.1546 13.8762 25.3042 14.417 24.3679 14.758C23.4315 15.099 22.4318 15.2323 21.4384 15.1485L21.4668 15.1784C20.6226 15.0937 19.7699 15.1969 18.9706 15.4808C18.1714 15.7644 17.4453 16.2218 16.8451 16.8194C16.2449 17.4171 15.7855 18.1403 15.5 18.9366C15.2147 19.733 15.1105 20.5824 15.1949 21.4238L15.1665 21.3955C15.2501 22.3853 15.1159 23.3814 14.7735 24.3143C14.4309 25.247 13.8884 26.0942 13.1837 26.7966C12.4788 27.4989 11.6287 28.0395 10.6926 28.3809C9.75657 28.7221 8.75705 28.8558 7.76381 28.7725L7.7922 28.8008C6.60392 28.6895 5.41014 28.9463 4.37369 29.5361C3.33725 30.1259 2.50859 31.0199 2.00076 32.0962C1.49292 33.1726 1.33061 34.3788 1.53599 35.5504C1.74137 36.722 2.30444 37.802 3.14837 38.6429C3.99231 39.484 5.07603 40.0451 6.25173 40.2497C7.42744 40.4543 8.63787 40.2926 9.71795 39.7866C10.798 39.2805 11.6951 38.4548 12.2869 37.422C12.8788 36.389 13.1365 35.1995 13.0248 34.0153L13.0548 34.0436C12.9709 33.0536 13.105 32.0576 13.4473 31.1245C13.7896 30.1916 14.3322 29.3444 15.037 28.6419C15.7419 27.9396 16.5921 27.3988 17.5283 27.0578C18.4646 26.7166 19.4641 26.583 20.4575 26.6666Z" fill="#C21F22"/>
<path d="M9.88795 23.5123C10.4857 22.9132 10.9433 22.19 11.2282 21.3943C11.5131 20.5986 11.6182 19.7499 11.536 18.9091L11.5659 18.9374C11.482 17.9473 11.616 16.9508 11.9586 16.0176C12.3011 15.0844 12.844 14.237 13.5492 13.5345C14.2545 12.832 15.105 12.2914 16.0416 11.9505C16.9782 11.6095 17.9782 11.4764 18.9718 11.5605L18.9418 11.5322C20.1296 11.6431 21.323 11.3861 22.3589 10.7964C23.3949 10.2067 24.223 9.31292 24.7307 8.23694C25.2382 7.16094 25.4003 5.95515 25.195 4.78397C24.9896 3.61278 24.4266 2.53324 23.5831 1.69254C22.7395 0.851841 21.6561 0.290915 20.4808 0.0862645C19.3056 -0.118402 18.0955 0.0431876 17.0159 0.548952C15.9361 1.05472 15.0392 1.88006 14.4475 2.91243C13.8556 3.94479 13.5978 5.13394 13.7091 6.31768L13.6808 6.28939C13.7647 7.27925 13.6306 8.27542 13.2882 9.20837C12.9458 10.1413 12.4034 10.9886 11.6985 11.691C10.9936 12.3934 10.1434 12.9341 9.20721 13.2752C8.27101 13.6164 7.27138 13.75 6.27808 13.6664L6.30647 13.6947C5.3359 13.6079 4.35906 13.7668 3.46648 14.1564C2.5739 14.546 1.79445 15.1539 1.20035 15.9236C0.606264 16.6932 0.216764 17.6 0.0679218 18.5596C-0.0809044 19.5194 0.015753 20.501 0.348936 21.4134C0.68212 22.3261 1.24107 23.14 1.97398 23.7799C2.70688 24.42 3.59003 24.8652 4.54159 25.0746C5.49313 25.2838 6.48231 25.2503 7.41745 24.9773C8.35258 24.7042 9.2034 24.2003 9.89109 23.5123H9.88795Z" fill="#C21F22"/>
<circle cx="135.156" cy="24.1208" r="3.44577" fill="#394149"/>
</svg>
