<svg width="1120" height="551" viewBox="0 0 1120 551" fill="none" xmlns="http://www.w3.org/2000/svg">
<path d="M170.176 55C181.221 55 190.176 46.0457 190.176 35L190.176 20C190.176 8.95428 199.13 -8.70425e-06 210.176 -9.18708e-06L617.975 -2.70125e-05C629.02 -2.74954e-05 637.975 8.95426 637.975 20L637.975 35C637.975 46.0457 646.929 55 657.975 55L1100 55C1111.05 55 1120 63.9543 1120 75L1120 519C1120 536.673 1105.67 551 1088 551L32 551C14.3271 551 0.000262159 536.673 -1.39876e-06 519L-2.08066e-05 75C-2.12894e-05 63.9543 8.95428 55 20 55L170.176 55Z" fill="#C4C4C4"/>
</svg>
