<svg width="840" height="551" viewBox="0 0 840 551" fill="none" xmlns="http://www.w3.org/2000/svg">
<path d="M44 55C55.0457 55 64 46.0457 64 35L64 20C64 8.9543 72.9543 -3.18893e-06 84 -3.67176e-06L657 -2.87184e-05C668.046 -2.92012e-05 677 8.95428 677 20L677 35C677 46.0457 685.954 55 697 55L820 55C831.046 55 840 63.9543 840 75L840 519C840 536.673 825.673 550.999 808 550.999L32 550.999C14.3269 550.999 4.51501e-05 536.672 4.43776e-05 518.999L2.49698e-05 75C2.4487e-05 63.9543 8.95433 55 20 55L44 55Z" fill="#C4C4C4"/>
</svg>
