<svg width="460" height="551" viewBox="0 0 460 551" fill="none" xmlns="http://www.w3.org/2000/svg">
<path d="M34 55.001C45.0457 55.001 54 46.0467 54 35.001L54 20.001C54 8.95528 62.9543 0.000973811 74 0.000973328L386 0.00095969C397.046 0.000959207 406 8.95526 406 20.001L406 35.001C406 46.0467 414.954 55.001 426 55.001L440 55.001C451.046 55.001 460 63.9553 460 75.001L460 519.001C460 536.674 445.673 551.001 428 551.001L32 551.001C14.3271 551.001 0.000281825 536.674 2.91188e-05 519.001L9.71096e-06 75.001C9.22813e-06 63.9553 8.95431 55.001 20 55.001L34 55.001Z" fill="#C4C4C4"/>
</svg>
