<svg width="840" height="551" viewBox="0 0 840 551" fill="none" xmlns="http://www.w3.org/2000/svg">
<path d="M46 55C57.0457 55 66 46.0457 66 35L66 20C66 8.9543 74.9543 -3.27636e-06 86 -3.75918e-06L754 -3.29584e-05C765.046 -3.34412e-05 774 8.95427 774 20L774 35C774 46.0457 782.954 55 794 55L820 55C831.046 55 840 63.9543 840 75L840 519C840 536.673 825.673 550.999 808 550.999L32 550.999C14.3269 550.999 4.51501e-05 536.672 4.43776e-05 518.999L2.49698e-05 75C2.4487e-05 63.9543 8.95433 55 20 55L46 55Z" fill="#C4C4C4"/>
</svg>
