<svg width="480" height="551" viewBox="0 0 480 551" fill="none" xmlns="http://www.w3.org/2000/svg">
<path d="M40 55C51.0457 55 60 46.0457 60 35L60 20C60 8.9543 68.9543 -3.01409e-06 80 -3.49691e-06L362 -1.58235e-05C373.046 -1.63063e-05 382 8.95429 382 20L382 35C382 46.0457 390.954 55 402 55L460 55C471.046 55 480 63.9543 480 75L480 519C480 536.673 465.673 551 448 551L32 551C14.3269 551 2.97605e-05 536.673 2.91188e-05 519L9.71096e-06 75C9.22813e-06 63.9543 8.95431 55 20 55L40 55Z" fill="#C4C4C4"/>
</svg>
