<svg width="346" height="529" viewBox="0 0 346 529" fill="none" xmlns="http://www.w3.org/2000/svg">
<path d="M36 47C47.0457 47 56 38.0457 56 27L56 20.4648C56 9.41915 64.9543 0.464841 76 0.46484L270 0.464832C281.046 0.464831 290 9.41914 290 20.4648L290 27C290 38.0457 298.954 47 310 47L326 47C337.046 47 346 55.9543 346 67L346 496.465C346 514.138 331.673 528.465 314 528.465L32 528.465C14.3269 528.465 -1.1084e-07 514.138 -1.39876e-06 496.465L-2.01713e-05 67C-2.06541e-05 55.9543 8.95428 47 20 47L36 47Z" fill="#C4C4C4"/>
</svg>
