<svg width="578" height="764" viewBox="0 0 578 764" fill="none" xmlns="http://www.w3.org/2000/svg">
<path d="M290 163C290 174.046 298.954 183 310 183H558C569.046 183 578 191.954 578 203V363C578 374.046 569.046 383 558 383H310C298.954 383 290 391.954 290 403V544C290 555.046 298.954 564 310 564H558C569.046 564 578 572.954 578 584V744C578 755.046 569.046 764 558 764H308C296.954 764 288 755.046 288 744V601C288 589.954 279.046 581 268 581H20C8.9543 581 0 572.046 0 561V401C0 389.954 8.95431 381 20 381H268C279.046 381 288 372.046 288 361V220C288 208.954 279.046 200 268 200H20C8.9543 200 0 191.046 0 180V20C0 8.95431 8.95431 0 20 0H270C281.046 0 290 8.95431 290 20V163Z" fill="#C21F22"/>
</svg>
