<svg width="1160" height="383" viewBox="0 0 1160 383" fill="none" xmlns="http://www.w3.org/2000/svg">
<path d="M290 163C290 174.046 298.954 183 310 183H560C571.046 183 580 174.046 580 163V20C580 8.95431 588.954 0 600 0H850C861.046 0 870 8.95431 870 20V163C870 174.046 878.954 183 890 183H1140C1151.05 183 1160 191.954 1160 203V363C1160 374.046 1151.05 383 1140 383H890C878.954 383 870 374.046 870 363V220C870 208.954 861.046 200 850 200H600C588.954 200 580 208.954 580 220V363C580 374.046 571.046 383 560 383H310C298.954 383 290 374.046 290 363V220C290 208.954 281.046 200 270 200H20C8.9543 200 0 191.046 0 180V20C0 8.95431 8.95431 0 20 0H270C281.046 0 290 8.95431 290 20V163Z" fill="#C21F22"/>
</svg>
