<svg width="965" height="468" viewBox="0 0 965 468" fill="none" xmlns="http://www.w3.org/2000/svg">
<path d="M245 203C245 214.046 253.954 223 265 223H460C471.046 223 480 214.046 480 203V20C480 8.9543 488.954 0 500 0H705C716.046 0 725 8.9543 725 20V203C725 214.046 733.954 223 745 223H945C956.046 223 965 231.954 965 243V448C965 459.046 956.046 468 945 468H740C728.954 468 720 459.046 720 448V265C720 253.954 711.046 245 700 245H505C493.954 245 485 253.954 485 265V448C485 459.046 476.046 468 465 468H260C248.954 468 240 459.046 240 448V265C240 253.954 231.046 245 220 245H20C8.9543 245 0 236.046 0 225V20C0 8.95431 8.9543 0 20 0H225C236.046 0 245 8.9543 245 20V203Z" fill="#C21F22"/>
</svg>
